<svg width="188" height="32" viewBox="0 0 188 32" fill="none" xmlns="http://www.w3.org/2000/svg">
<path d="M52 4C52 1.79086 53.7909 0 56 0H80C82.2091 0 84 1.79086 84 4V28C84 30.2091 82.2091 32 80 32H56C53.7909 32 52 30.2091 52 28V4Z" fill="#181A1B"/>
<path d="M75.7623 11.2912C75.2057 11.5379 74.6077 11.7046 73.979 11.7799C74.6277 11.3918 75.113 10.7809 75.3443 10.0612C74.7349 10.4232 74.0679 10.678 73.3723 10.8146C72.9046 10.3151 72.285 9.98411 71.6099 9.87287C70.9347 9.76164 70.2417 9.87642 69.6385 10.1994C69.0353 10.5224 68.5555 11.0355 68.2738 11.659C67.992 12.2826 67.924 12.9817 68.0803 13.6479C66.8455 13.5859 65.6374 13.2649 64.5346 12.7058C63.4318 12.1467 62.4589 11.362 61.679 10.4026C61.4123 10.8626 61.259 11.3959 61.259 11.9639C61.2587 12.4752 61.3846 12.9787 61.6256 13.4297C61.8665 13.8807 62.2151 14.2652 62.6403 14.5492C62.1472 14.5335 61.6649 14.4003 61.2337 14.1606V14.2006C61.2336 14.9177 61.4817 15.6128 61.9358 16.1679C62.3899 16.723 63.022 17.1038 63.725 17.2459C63.2675 17.3697 62.7879 17.3879 62.3223 17.2992C62.5207 17.9163 62.907 18.4559 63.4272 18.8425C63.9475 19.2291 64.5756 19.4433 65.2237 19.4552C64.1236 20.3188 62.7649 20.7873 61.3663 20.7852C61.1186 20.7853 60.8711 20.7708 60.625 20.7419C62.0447 21.6547 63.6972 22.1391 65.385 22.1372C71.0983 22.1372 74.2217 17.4052 74.2217 13.3012C74.2217 13.1679 74.2183 13.0332 74.2123 12.8999C74.8199 12.4605 75.3443 11.9165 75.761 11.2932L75.7623 11.2912Z" fill="#F8F8F8"/>
<path d="M104 4C104 1.79086 105.791 0 108 0H132C134.209 0 136 1.79086 136 4V28C136 30.2091 134.209 32 132 32H108C105.791 32 104 30.2091 104 28V4Z" fill="#181A1B"/>
<g clip-path="url(#clip0_10_2211)">
<path fill-rule="evenodd" clip-rule="evenodd" d="M116.977 8.71075C117.759 8.67475 118.008 8.66675 120 8.66675C121.992 8.66675 122.242 8.67541 123.023 8.71075C123.804 8.74608 124.338 8.87075 124.804 9.05141C125.293 9.23608 125.736 9.52475 126.103 9.89808C126.476 10.2641 126.764 10.7067 126.948 11.1961C127.13 11.6627 127.254 12.1961 127.29 12.9761C127.326 13.7594 127.334 14.0087 127.334 16.0001C127.334 17.9921 127.325 18.2414 127.29 19.0234C127.254 19.8034 127.13 20.3367 126.948 20.8034C126.764 21.2928 126.476 21.7362 126.103 22.1027C125.736 22.4761 125.293 22.7641 124.804 22.9481C124.338 23.1294 123.804 23.2534 123.024 23.2894C122.242 23.3254 121.992 23.3334 120 23.3334C118.008 23.3334 117.759 23.3247 116.977 23.2894C116.197 23.2541 115.664 23.1294 115.197 22.9481C114.708 22.7641 114.264 22.4756 113.898 22.1027C113.525 21.7365 113.236 21.2933 113.052 20.8041C112.871 20.3374 112.747 19.8041 112.711 19.0241C112.675 18.2407 112.667 17.9914 112.667 16.0001C112.667 14.0081 112.676 13.7587 112.711 12.9774C112.746 12.1961 112.871 11.6627 113.052 11.1961C113.236 10.7068 113.525 10.2636 113.898 9.89741C114.264 9.52442 114.707 9.23571 115.196 9.05141C115.663 8.87075 116.196 8.74675 116.976 8.71075H116.977ZM122.964 10.0307C122.19 9.99541 121.958 9.98808 120 9.98808C118.042 9.98808 117.81 9.99541 117.037 10.0307C116.322 10.0634 115.934 10.1827 115.675 10.2834C115.333 10.4167 115.088 10.5747 114.832 10.8314C114.588 11.0681 114.401 11.3563 114.284 11.6747C114.183 11.9334 114.064 12.3214 114.031 13.0367C113.996 13.8101 113.988 14.0421 113.988 16.0001C113.988 17.9581 113.996 18.1901 114.031 18.9634C114.064 19.6787 114.183 20.0667 114.284 20.3254C114.401 20.6434 114.588 20.9321 114.832 21.1687C115.068 21.4121 115.357 21.5994 115.675 21.7167C115.934 21.8174 116.322 21.9367 117.037 21.9694C117.81 22.0047 118.042 22.0121 120 22.0121C121.959 22.0121 122.19 22.0047 122.964 21.9694C123.679 21.9367 124.067 21.8174 124.326 21.7167C124.668 21.5834 124.912 21.4254 125.169 21.1687C125.412 20.9321 125.6 20.6434 125.717 20.3254C125.818 20.0667 125.937 19.6787 125.97 18.9634C126.005 18.1901 126.012 17.9581 126.012 16.0001C126.012 14.0421 126.005 13.8101 125.97 13.0367C125.937 12.3214 125.818 11.9334 125.717 11.6747C125.584 11.3327 125.426 11.0881 125.169 10.8314C124.932 10.5881 124.644 10.4009 124.326 10.2834C124.067 10.1827 123.679 10.0634 122.964 10.0307ZM119.064 18.2607C119.587 18.4785 120.169 18.5079 120.712 18.3439C121.254 18.1799 121.723 17.8327 122.037 17.3616C122.352 16.8905 122.494 16.3247 122.438 15.7608C122.382 15.197 122.132 14.6701 121.73 14.2701C121.474 14.0144 121.165 13.8186 120.825 13.6968C120.484 13.5751 120.121 13.5303 119.761 13.5658C119.401 13.6013 119.053 13.7162 118.743 13.9022C118.433 14.0881 118.167 14.3406 117.967 14.6413C117.766 14.9421 117.634 15.2836 117.581 15.6414C117.528 15.9992 117.554 16.3643 117.659 16.7104C117.764 17.0566 117.945 17.3752 118.187 17.6432C118.43 17.9113 118.73 18.1222 119.064 18.2607ZM117.335 13.3347C117.685 12.9847 118.101 12.7071 118.558 12.5177C119.015 12.3282 119.505 12.2307 120 12.2307C120.495 12.2307 120.985 12.3282 121.443 12.5177C121.9 12.7071 122.316 12.9847 122.666 13.3347C123.016 13.6848 123.293 14.1003 123.483 14.5576C123.672 15.0149 123.77 15.5051 123.77 16.0001C123.77 16.4951 123.672 16.9852 123.483 17.4425C123.293 17.8999 123.016 18.3154 122.666 18.6654C121.959 19.3723 121 19.7694 120 19.7694C119.001 19.7694 118.042 19.3723 117.335 18.6654C116.628 17.9585 116.231 16.9998 116.231 16.0001C116.231 15.0004 116.628 14.0416 117.335 13.3347ZM124.606 12.7921C124.692 12.7103 124.762 12.6119 124.81 12.5027C124.858 12.3936 124.884 12.2759 124.885 12.1567C124.887 12.0375 124.865 11.9191 124.82 11.8086C124.775 11.6981 124.709 11.5978 124.624 11.5134C124.54 11.4291 124.44 11.3626 124.329 11.3178C124.219 11.2729 124.1 11.2507 123.981 11.2525C123.862 11.2542 123.744 11.2799 123.635 11.3279C123.526 11.3759 123.427 11.4453 123.346 11.5321C123.187 11.7008 123.099 11.9248 123.103 12.1567C123.106 12.3886 123.2 12.61 123.364 12.774C123.528 12.938 123.749 13.0316 123.981 13.0349C124.213 13.0383 124.437 12.9512 124.606 12.7921Z" fill="#F8F8F8"/>
</g>
<path d="M156 4C156 1.79086 157.791 0 160 0H184C186.209 0 188 1.79086 188 4V28C188 30.2091 186.209 32 184 32H160C157.791 32 156 30.2091 156 28V4Z" fill="#181A1B"/>
<g clip-path="url(#clip1_10_2211)">
<path fill-rule="evenodd" clip-rule="evenodd" d="M164.667 9.89208C164.667 9.5671 164.796 9.25544 165.026 9.02564C165.256 8.79585 165.567 8.66675 165.892 8.66675H178.107C178.268 8.66649 178.428 8.69799 178.576 8.75946C178.725 8.82093 178.861 8.91116 178.974 9.02497C179.088 9.13879 179.179 9.27397 179.24 9.42276C179.302 9.57155 179.334 9.73103 179.334 9.89208V22.1067C179.334 22.2678 179.302 22.4274 179.241 22.5762C179.179 22.7251 179.089 22.8604 178.975 22.9743C178.861 23.0882 178.726 23.1786 178.577 23.2402C178.428 23.3018 178.269 23.3335 178.108 23.3334H165.892C165.731 23.3334 165.572 23.3017 165.423 23.2401C165.275 23.1785 165.139 23.0881 165.026 22.9743C164.912 22.8604 164.822 22.7253 164.76 22.5765C164.699 22.4278 164.667 22.2684 164.667 22.1074V9.89208ZM170.472 14.2587H172.458V15.2561C172.745 14.6828 173.478 14.1667 174.58 14.1667C176.693 14.1667 177.194 15.3088 177.194 17.4041V21.2854H175.056V17.8814C175.056 16.6881 174.769 16.0148 174.041 16.0148C173.031 16.0148 172.611 16.7408 172.611 17.8814V21.2854H170.472V14.2587ZM166.806 21.1941H168.944V14.1667H166.806V21.1934V21.1941ZM169.25 11.8747C169.254 12.0579 169.222 12.2399 169.154 12.4103C169.087 12.5806 168.987 12.7358 168.858 12.8668C168.73 12.9977 168.577 13.1017 168.409 13.1728C168.24 13.2438 168.058 13.2804 167.875 13.2804C167.692 13.2804 167.511 13.2438 167.342 13.1728C167.173 13.1017 167.02 12.9977 166.892 12.8668C166.764 12.7358 166.663 12.5806 166.596 12.4103C166.529 12.2399 166.496 12.0579 166.5 11.8747C166.508 11.5153 166.657 11.1733 166.914 10.9219C167.171 10.6705 167.516 10.5297 167.875 10.5297C168.235 10.5297 168.58 10.6705 168.837 10.9219C169.094 11.1733 169.242 11.5153 169.25 11.8747Z" fill="#F8F8F8"/>
</g>
<path d="M0 4C0 1.79086 1.79086 0 4 0H28C30.2091 0 32 1.79086 32 4V28C32 30.2091 30.2091 32 28 32H4C1.79086 32 0 30.2091 0 28V4Z" fill="#181A1B"/>
<g clip-path="url(#clip2_10_2211)">
<path d="M19.7233 17L20.1678 14.1045H17.3893V12.2255C17.3893 11.4335 17.7773 10.661 19.0218 10.661H20.2848V8.19599C20.2848 8.19599 19.1388 8.00049 18.0428 8.00049C15.7548 8.00049 14.2593 9.38749 14.2593 11.898V14.105H11.7158V17.0005H14.2593V24.0005H17.3893V17.0005L19.7233 17Z" fill="#F8F8F8"/>
</g>
<defs>
<clipPath id="clip0_10_2211">
<rect width="16" height="16" fill="white" transform="translate(112 8)"/>
</clipPath>
<clipPath id="clip1_10_2211">
<rect width="16" height="16" fill="white" transform="translate(164 8)"/>
</clipPath>
<clipPath id="clip2_10_2211">
<rect width="16" height="16" fill="white" transform="translate(8 8)"/>
</clipPath>
</defs>
</svg>
